# Blender v2.79 (sub 0) OBJ File: ''
# www.blender.org
o Plane
v 3.858481 0.000000 -3.858481
v -3.858481 0.000000 -3.858481
v 3.858481 0.000000 3.858481
v -3.858481 0.000000 3.858481
v -2.893861 0.000000 3.858481
v -1.929241 0.000000 3.858481
v -0.964620 0.000000 3.858481
v 0.000000 0.000000 3.858481
v 0.964620 0.000000 3.858481
v 1.929241 0.000000 3.858481
v 2.893861 0.000000 3.858481
v 2.893861 0.000000 2.893861
v 1.929241 0.000000 1.929241
v 0.964620 0.000000 0.964620
v 0.000000 0.939964 0.000000
v -0.964620 0.000000 -0.964620
v -1.929241 0.000000 -1.929241
v -2.893861 0.000000 -2.893861
v -3.858481 0.000000 -2.893861
v -3.858481 0.000000 -1.929241
v -3.858481 0.000000 -0.964620
v -3.858481 0.939964 0.000000
v -3.858481 0.000000 0.964620
v -3.858481 0.000000 1.929241
v -3.858481 0.000000 2.893861
v 3.858481 0.000000 2.893861
v 3.858481 0.000000 1.929241
v 3.858481 0.000000 0.964620
v 3.858481 0.939964 0.000000
v 3.858481 0.000000 -0.964620
v 3.858481 0.000000 -1.929241
v 3.858481 0.000000 -2.893861
v 2.893861 0.000000 -3.858481
v 1.929241 0.000000 -3.858481
v 0.964620 0.000000 -3.858481
v 0.000000 0.000000 -3.858481
v -0.964620 0.000000 -3.858481
v -1.929241 0.000000 -3.858481
v -2.893861 0.000000 -3.858481
v -2.893861 0.000000 2.893861
v -1.929241 0.000000 2.893861
v -2.893861 0.000000 1.929241
v -0.964620 0.000000 2.893861
v -1.929241 0.000000 1.929241
v -2.893861 0.000000 0.964620
v 0.000000 0.000000 2.893861
v -0.964620 0.000000 1.929241
v -1.929241 0.000000 0.964620
v -2.893861 0.939964 0.000000
v 0.964620 0.000000 2.893861
v 0.000000 0.000000 1.929241
v -0.964620 0.000000 0.964620
v -1.929241 0.939964 0.000000
v -2.893861 0.000000 -0.964620
v 1.929241 0.000000 2.893861
v 0.964620 0.000000 1.929241
v 0.000000 0.000000 0.964620
v -0.964620 0.939964 0.000000
v -1.929241 0.000000 -0.964620
v -2.893861 0.000000 -1.929241
v -1.929241 0.000000 -2.893861
v -0.964620 0.000000 -1.929241
v -0.964620 0.000000 -2.893861
v 0.000000 0.000000 -0.964620
v 0.000000 0.000000 -1.929241
v 0.000000 0.000000 -2.893861
v 0.964620 0.939964 0.000000
v 0.964620 0.000000 -0.964620
v 0.964620 0.000000 -1.929241
v 0.964620 0.000000 -2.893861
v 1.929241 0.000000 0.964620
v 1.929241 0.939964 0.000000
v 1.929241 0.000000 -0.964620
v 1.929241 0.000000 -1.929241
v 1.929241 0.000000 -2.893861
v 2.893861 0.000000 1.929241
v 2.893861 0.000000 0.964620
v 2.893861 0.939964 0.000000
v 2.893861 0.000000 -0.964620
v 2.893861 0.000000 -1.929241
v 2.893861 0.000000 -2.893861
v -3.858481 0.939964 0.000000
v -2.893861 0.939964 0.000000
v -1.929241 0.939964 0.000000
v -0.964620 0.939964 0.000000
v 0.000000 0.939964 0.000000
v 0.964620 0.939964 0.000000
v 1.929241 0.939964 0.000000
v 2.893861 0.939964 0.000000
v 3.858481 0.939964 0.000000
vt 0.909508 0.500135
vt 0.909508 0.613807
vt 0.795837 0.613807
vt 0.795837 0.500135
vt 0.113807 0.500135
vt 0.000135 0.613807
vt 0.000135 0.500135
vt 0.227478 0.500135
vt 0.113807 0.613807
vt 0.341150 0.500135
vt 0.227478 0.613807
vt 0.454822 0.500135
vt 0.341150 0.613807
vt 0.568493 0.500135
vt 0.454822 0.613807
vt 0.682165 0.500135
vt 0.568493 0.613807
vt 0.682165 0.613807
vt 0.000135 0.727479
vt 0.113807 0.727479
vt 0.000135 0.841150
vt 0.227478 0.727479
vt 0.113807 0.841150
vt 0.000135 0.999865
vt 0.341150 0.727479
vt 0.227478 0.841150
vt 0.113807 0.999865
vt 0.113807 0.000135
vt 0.000135 0.158850
vt 0.000135 0.000135
vt 0.454822 0.727479
vt 0.341150 0.841150
vt 0.227478 0.999865
vt 0.227479 0.000135
vt 0.113807 0.158850
vt 0.000135 0.272521
vt 0.568493 0.727479
vt 0.454822 0.841150
vt 0.341150 0.999865
vt 0.341150 0.000135
vt 0.227479 0.158850
vt 0.113807 0.272522
vt 0.000135 0.386193
vt 0.682165 0.727479
vt 0.568493 0.841150
vt 0.454822 0.999865
vt 0.454822 0.000135
vt 0.341150 0.158850
vt 0.227478 0.272522
vt 0.113807 0.386193
vt 0.000135 0.499865
vt 0.113807 0.499865
vt 0.227478 0.386193
vt 0.341150 0.272522
vt 0.454822 0.158850
vt 0.568493 0.999865
vt 0.682165 0.841150
vt 0.795837 0.727479
vt 0.227478 0.499865
vt 0.341150 0.386193
vt 0.341150 0.499865
vt 0.454822 0.272522
vt 0.454822 0.386193
vt 0.454822 0.499865
vt 0.568494 0.000135
vt 0.568494 0.158850
vt 0.568494 0.272522
vt 0.568493 0.386194
vt 0.568493 0.499865
vt 0.682165 0.999865
vt 0.682165 0.000135
vt 0.682165 0.158850
vt 0.682165 0.272522
vt 0.682165 0.386194
vt 0.682165 0.499865
vt 0.795837 0.841150
vt 0.795837 0.999865
vt 0.795837 0.000135
vt 0.795837 0.158850
vt 0.795837 0.272522
vt 0.795837 0.386194
vt 0.795837 0.499865
vt 0.909508 0.727479
vt 0.909508 0.841150
vt 0.909508 0.999865
vt 0.909509 0.000135
vt 0.909509 0.158850
vt 0.909509 0.272522
vt 0.909509 0.386194
vt 0.909509 0.499865
vn 0.0000 1.0000 0.0000
vn 0.0000 0.7162 0.6979
vn 0.0000 0.7162 -0.6979
s off
f 3/1/1 26/2/1 12/3/1
f 3/1/1 12/3/1 11/4/1
f 5/5/1 25/6/1 4/7/1
f 6/8/1 40/9/1 5/5/1
f 7/10/1 41/11/1 6/8/1
f 8/12/1 43/13/1 7/10/1
f 9/14/1 46/15/1 8/12/1
f 10/16/1 50/17/1 9/14/1
f 11/4/1 55/18/1 10/16/1
f 5/5/1 40/9/1 25/6/1
f 40/9/1 24/19/1 25/6/1
f 6/8/1 41/11/1 40/9/1
f 41/11/1 42/20/1 40/9/1
f 40/9/1 42/20/1 24/19/1
f 42/20/1 23/21/1 24/19/1
f 7/10/1 43/13/1 41/11/1
f 43/13/1 44/22/1 41/11/1
f 41/11/1 44/22/1 42/20/1
f 44/22/1 45/23/1 42/20/1
f 42/20/1 45/23/1 23/21/1
f 45/23/2 22/24/2 23/21/2
f 8/12/1 46/15/1 43/13/1
f 46/15/1 47/25/1 43/13/1
f 43/13/1 47/25/1 44/22/1
f 47/25/1 48/26/1 44/22/1
f 44/22/1 48/26/1 45/23/1
f 48/26/2 49/27/2 45/23/2
f 45/23/2 49/27/2 22/24/2
f 83/28/3 21/29/3 82/30/3
f 9/14/1 50/17/1 46/15/1
f 50/17/1 51/31/1 46/15/1
f 46/15/1 51/31/1 47/25/1
f 51/31/1 52/32/1 47/25/1
f 47/25/1 52/32/1 48/26/1
f 52/32/2 84/33/2 48/26/2
f 48/26/2 84/33/2 49/27/2
f 53/34/3 54/35/3 83/28/3
f 83/28/3 54/35/3 21/29/3
f 54/35/1 20/36/1 21/29/1
f 10/16/1 55/18/1 50/17/1
f 55/18/1 56/37/1 50/17/1
f 50/17/1 56/37/1 51/31/1
f 56/37/1 57/38/1 51/31/1
f 51/31/1 57/38/1 52/32/1
f 57/38/2 85/39/2 52/32/2
f 52/32/2 85/39/2 84/33/2
f 58/40/3 59/41/3 53/34/3
f 53/34/3 59/41/3 54/35/3
f 59/41/1 60/42/1 54/35/1
f 54/35/1 60/42/1 20/36/1
f 60/42/1 19/43/1 20/36/1
f 11/4/1 12/3/1 55/18/1
f 12/3/1 13/44/1 55/18/1
f 55/18/1 13/44/1 56/37/1
f 13/44/1 14/45/1 56/37/1
f 56/37/1 14/45/1 57/38/1
f 14/45/2 86/46/2 57/38/2
f 57/38/2 86/46/2 85/39/2
f 15/47/3 16/48/3 58/40/3
f 58/40/3 16/48/3 59/41/3
f 16/48/1 17/49/1 59/41/1
f 59/41/1 17/49/1 60/42/1
f 17/49/1 18/50/1 60/42/1
f 60/42/1 18/50/1 19/43/1
f 18/50/1 2/51/1 19/43/1
f 18/50/1 39/52/1 2/51/1
f 17/49/1 61/53/1 18/50/1
f 16/48/1 62/54/1 17/49/1
f 15/47/3 64/55/3 16/48/3
f 14/45/2 87/56/2 86/46/2
f 13/44/1 71/57/1 14/45/1
f 12/3/1 76/58/1 13/44/1
f 18/50/1 61/53/1 39/52/1
f 61/53/1 38/59/1 39/52/1
f 17/49/1 62/54/1 61/53/1
f 62/54/1 63/60/1 61/53/1
f 61/53/1 63/60/1 38/59/1
f 63/60/1 37/61/1 38/59/1
f 16/48/1 64/55/1 62/54/1
f 64/55/1 65/62/1 62/54/1
f 62/54/1 65/62/1 63/60/1
f 65/62/1 66/63/1 63/60/1
f 63/60/1 66/63/1 37/61/1
f 66/63/1 36/64/1 37/61/1
f 15/47/3 67/65/3 64/55/3
f 67/65/3 68/66/3 64/55/3
f 64/55/1 68/66/1 65/62/1
f 68/66/1 69/67/1 65/62/1
f 65/62/1 69/67/1 66/63/1
f 69/67/1 70/68/1 66/63/1
f 66/63/1 70/68/1 36/64/1
f 70/68/1 35/69/1 36/64/1
f 14/45/2 71/57/2 87/56/2
f 71/57/2 88/70/2 87/56/2
f 67/65/3 72/71/3 68/66/3
f 72/71/3 73/72/3 68/66/3
f 68/66/1 73/72/1 69/67/1
f 73/72/1 74/73/1 69/67/1
f 69/67/1 74/73/1 70/68/1
f 74/73/1 75/74/1 70/68/1
f 70/68/1 75/74/1 35/69/1
f 75/74/1 34/75/1 35/69/1
f 13/44/1 76/58/1 71/57/1
f 76/58/1 77/76/1 71/57/1
f 71/57/2 77/76/2 88/70/2
f 77/76/2 89/77/2 88/70/2
f 72/71/3 78/78/3 73/72/3
f 78/78/3 79/79/3 73/72/3
f 73/72/1 79/79/1 74/73/1
f 79/79/1 80/80/1 74/73/1
f 74/73/1 80/80/1 75/74/1
f 80/80/1 81/81/1 75/74/1
f 75/74/1 81/81/1 34/75/1
f 81/81/1 33/82/1 34/75/1
f 12/3/1 26/2/1 76/58/1
f 26/2/1 27/83/1 76/58/1
f 76/58/1 27/83/1 77/76/1
f 27/83/1 28/84/1 77/76/1
f 77/76/2 28/84/2 89/77/2
f 28/84/2 90/85/2 89/77/2
f 78/78/3 29/86/3 79/79/3
f 29/86/3 30/87/3 79/79/3
f 79/79/1 30/87/1 80/80/1
f 30/87/1 31/88/1 80/80/1
f 80/80/1 31/88/1 81/81/1
f 31/88/1 32/89/1 81/81/1
f 81/81/1 32/89/1 33/82/1
f 32/89/1 1/90/1 33/82/1
