# Blender v2.78 (sub 0) OBJ File: ''
# www.blender.org
o Plane
v 0.248264 3.751735 0.000000
v -3.751736 -0.248264 0.000000
v 4.248264 -0.248264 0.000001
v -2.580163 -3.076691 0.000002
v -2.580163 2.580163 0.000002
v 0.248263 -0.248264 -4.000000
v 0.248260 -0.248264 4.000000
v 3.076692 2.580163 -0.000001
v 3.076691 -3.076692 -0.000001
v 0.248263 -3.076691 2.828427
v 0.248263 2.580163 2.828427
v 0.248263 2.580163 -2.828427
v 0.248263 -3.076691 -2.828427
v -1.282469 -3.943783 0.000001
v -1.282470 3.447253 0.000000
v -2.580163 -0.248264 -2.828427
v 3.076688 -0.248264 2.828430
v 1.778998 3.447253 -0.000001
v 3.943782 -1.778998 0.000001
v -3.447254 -1.778998 -0.000000
v 0.248264 -4.248265 0.000000
v -3.447254 1.282470 0.000000
v 3.076693 -0.248264 -2.828426
v -2.580163 -0.248264 2.828427
v 3.943782 1.282470 0.000001
v 1.778998 -3.943783 -0.000001
v 2.248263 -3.076691 2.000000
v -1.751735 -3.076691 2.000001
v 0.248260 -1.778998 3.695518
v 0.248264 -3.943784 1.530733
v 2.248263 2.580163 2.000000
v -1.751735 2.580163 2.000001
v 0.248264 3.447255 1.530733
v 0.248260 1.282470 3.695518
v -1.751736 2.580163 -2.000000
v 2.248263 2.580163 -2.000000
v 0.248264 3.447253 -1.530734
v 0.248263 1.282470 -3.695518
v -1.751736 -3.076691 -2.000000
v 2.248263 -3.076691 -2.000000
v 0.248263 -1.778998 -3.695518
v 0.248264 -3.943782 -1.530734
v 1.330656 -3.943783 -1.082392
v 2.861391 -1.778998 -2.613125
v -2.364862 -1.778998 -2.613126
v 2.861391 1.282470 -2.613125
v 1.330656 3.447253 -1.082392
v -0.834128 3.447254 -1.082392
v -2.364862 1.282470 2.613126
v -0.834127 3.447255 1.082392
v 1.330656 3.447253 1.082392
v -0.834127 -3.943784 1.082392
v -2.364862 -1.778998 2.613126
v 2.861387 -1.778998 2.613128
v 1.330656 -3.943783 1.082392
v 2.861387 1.282470 2.613128
v -2.364862 1.282470 -2.613126
v -0.834128 -3.943782 -1.082392
vt 0.3318 0.0473
vt 0.4094 0.0241
vt 0.3550 0.0758
vt 0.1222 0.4998
vt 0.2470 0.6907
vt 0.1547 0.7165
vt 0.4998 0.4984
vt 0.5747 0.6885
vt 0.4909 0.6753
vt 0.4392 0.0899
vt 0.4654 0.0734
vt 0.4660 0.1796
vt 0.5738 0.3068
vt 0.4900 0.3214
vt 0.3536 0.1811
vt 0.4101 0.3264
vt 0.3302 0.3226
vt 0.3822 0.0911
vt 0.4108 0.0956
vt 0.4674 0.8174
vt 0.4660 0.9235
vt 0.4387 0.9080
vt 0.3817 0.9091
vt 0.4106 0.8115
vt 0.4100 0.9034
vt 0.3213 0.4992
vt 0.4108 0.6714
vt 0.3307 0.6763
vt 0.2394 0.8781
vt 0.3546 0.9251
vt 0.3330 0.9541
vt 0.5842 0.8736
vt 0.5029 1.0000
vt 0.4894 0.9522
vt 0.6993 0.4975
vt 0.7705 0.7517
vt 0.6665 0.7129
vt 0.2376 0.1252
vt 0.2467 0.3094
vt 0.1554 0.2850
vt 0.5804 0.1193
vt 0.7723 0.2392
vt 0.6660 0.2806
vt 0.4866 0.0445
vt 0.4972 0.0000
vt 0.6396 0.0566
vt 0.5226 0.1582
vt 0.8218 0.4975
vt 0.5942 0.4979
vt 0.2271 0.4996
vt 0.0519 0.2461
vt 0.0000 0.4994
vt 0.1776 0.0670
vt 0.6447 0.9321
vt 0.5250 0.8371
vt 0.4109 0.9757
vt 0.3219 0.9988
vt 0.1795 0.9404
vt 0.3537 0.8189
vt 0.2976 0.8394
vt 0.4099 0.1869
vt 0.2964 0.1615
vt 0.4105 0.4988
vt 0.0483 0.7572
vt 0.3184 0.0000
vn -0.2988 -0.9063 -0.2988
vn 0.0000 -1.0000 0.0000
vn -0.4226 -0.9063 0.0000
vn -0.7071 0.0000 -0.7071
vn -0.9303 0.3668 0.0000
vn -0.6578 0.3668 -0.6578
vn 0.7071 0.0000 0.7071
vn 0.9303 0.3668 0.0000
vn 0.6578 0.3668 0.6578
vn 0.2988 -0.9063 0.2988
vn 0.4226 -0.9063 0.0000
vn 0.5159 -0.6838 0.5159
vn 0.9303 -0.3668 0.0000
vn 0.6578 -0.3668 0.6578
vn -0.5159 -0.6838 0.5159
vn 0.0000 -0.3668 0.9303
vn -0.6578 -0.3668 0.6578
vn -0.2988 -0.9063 0.2988
vn 0.0000 -0.9063 0.4226
vn 0.5159 0.6838 0.5159
vn 0.4226 0.9063 0.0000
vn 0.2988 0.9063 0.2988
vn -0.2988 0.9063 0.2988
vn 0.0000 0.6838 0.7296
vn 0.0000 0.9063 0.4226
vn -0.7071 0.0000 0.7071
vn 0.0000 0.3668 0.9303
vn -0.6578 0.3668 0.6578
vn -0.5159 0.6838 -0.5159
vn -0.4226 0.9063 0.0000
vn -0.2988 0.9063 -0.2988
vn 0.5159 0.6838 -0.5159
vn 0.0000 0.9063 -0.4226
vn 0.2988 0.9063 -0.2988
vn 0.7071 0.0000 -0.7071
vn 0.0000 0.3668 -0.9303
vn 0.6578 0.3668 -0.6578
vn -0.5159 -0.6838 -0.5159
vn -0.9303 -0.3668 0.0000
vn -0.6578 -0.3668 -0.6578
vn 0.5159 -0.6838 -0.5159
vn 0.0000 -0.3668 -0.9303
vn 0.6578 -0.3668 -0.6578
vn 0.2988 -0.9063 -0.2988
vn 0.0000 -0.9063 -0.4226
vn 0.0000 -0.6838 -0.7296
vn 0.7296 -0.6838 0.0000
vn 0.0000 0.0000 -1.0000
vn 1.0000 0.0000 0.0000
vn -1.0000 0.0000 0.0000
vn 0.0000 0.6838 -0.7296
vn 0.7296 0.6838 0.0000
vn 0.0000 1.0000 0.0000
vn -0.5159 0.6838 0.5159
vn -0.7296 0.6838 0.0000
vn 0.0000 -0.6838 0.7296
vn -0.7296 -0.6838 0.0000
vn 0.0000 0.0000 1.0000
s 1
f 58/1/1 21/2/2 14/3/3
f 16/4/4 22/5/5 57/6/6
f 17/7/7 25/8/8 56/9/9
f 55/10/10 21/2/2 26/11/11
f 27/12/12 19/13/13 54/14/14
f 28/15/15 29/16/16 53/17/17
f 52/18/18 21/2/2 30/19/19
f 31/20/20 18/21/21 51/22/22
f 50/23/23 11/24/24 33/25/25
f 24/26/26 34/27/27 49/28/28
f 35/29/29 15/30/30 48/31/31
f 36/32/32 37/33/33 47/34/34
f 23/35/35 38/36/36 46/37/37
f 39/38/38 20/39/39 45/40/40
f 40/41/41 41/42/42 44/43/43
f 43/44/44 21/2/2 42/45/45
f 40/41/41 42/45/45 13/46/46
f 9/47/47 43/44/44 40/41/41
f 26/11/11 21/2/2 43/44/44
f 44/43/43 6/48/48 23/35/35
f 19/13/13 23/35/35 3/49/49
f 9/47/47 44/43/43 19/13/13
f 16/4/4 20/39/39 2/50/50
f 41/51/42 16/4/4 6/52/48
f 13/53/46 45/40/40 41/51/42
f 36/32/32 38/36/36 12/54/51
f 8/55/52 46/37/37 36/32/32
f 3/49/49 46/37/37 25/8/8
f 1/56/53 47/34/34 37/33/33
f 1/56/53 18/21/21 47/34/34
f 8/55/52 47/34/34 18/21/21
f 1/56/53 48/31/31 15/30/30
f 1/56/53 37/57/33 48/31/31
f 12/58/51 48/31/31 37/57/33
f 32/59/54 34/27/27 11/24/24
f 5/60/55 49/28/28 32/59/54
f 22/5/5 24/26/26 49/28/28
f 1/56/53 50/23/23 33/25/25
f 1/56/53 15/30/30 50/23/23
f 15/30/30 32/59/54 50/23/23
f 1/56/53 51/22/22 18/21/21
f 1/56/53 33/25/25 51/22/22
f 11/24/24 51/22/22 33/25/25
f 52/18/18 10/61/56 28/15/15
f 14/3/3 28/15/15 4/62/57
f 14/3/3 21/2/2 52/18/18
f 53/17/17 7/63/58 24/26/26
f 2/50/50 53/17/17 24/26/26
f 4/62/57 53/17/17 20/39/39
f 54/14/14 3/49/49 17/7/7
f 29/16/16 17/7/7 7/63/58
f 10/61/56 54/14/14 29/16/16
f 55/10/10 9/47/47 27/12/12
f 10/61/56 55/10/10 27/12/12
f 30/19/19 21/2/2 55/10/10
f 31/20/20 25/8/8 8/55/52
f 11/24/24 56/9/9 31/20/20
f 7/63/58 56/9/9 34/27/27
f 35/29/29 22/5/5 5/60/55
f 38/64/36 35/29/29 12/58/51
f 6/52/48 57/6/6 38/64/36
f 58/1/1 4/62/57 39/38/38
f 42/65/45 39/38/38 13/53/46
f 42/65/45 21/2/2 58/1/1
f 16/4/4 2/50/50 22/5/5
f 17/7/7 3/49/49 25/8/8
f 27/12/12 9/47/47 19/13/13
f 28/15/15 10/61/56 29/16/16
f 31/20/20 8/55/52 18/21/21
f 50/23/23 32/59/54 11/24/24
f 24/26/26 7/63/58 34/27/27
f 35/29/29 5/60/55 15/30/30
f 36/32/32 12/54/51 37/33/33
f 23/35/35 6/48/48 38/36/36
f 39/38/38 4/62/57 20/39/39
f 40/41/41 13/46/46 41/42/42
f 40/41/41 43/44/44 42/45/45
f 9/47/47 26/11/11 43/44/44
f 44/43/43 41/42/42 6/48/48
f 19/13/13 44/43/43 23/35/35
f 9/47/47 40/41/41 44/43/43
f 16/4/4 45/40/40 20/39/39
f 41/51/42 45/40/40 16/4/4
f 13/53/46 39/38/38 45/40/40
f 36/32/32 46/37/37 38/36/36
f 8/55/52 25/8/8 46/37/37
f 3/49/49 23/35/35 46/37/37
f 8/55/52 36/32/32 47/34/34
f 12/58/51 35/29/29 48/31/31
f 32/59/54 49/28/28 34/27/27
f 5/60/55 22/5/5 49/28/28
f 22/5/5 2/50/50 24/26/26
f 15/30/30 5/60/55 32/59/54
f 11/24/24 31/20/20 51/22/22
f 52/18/18 30/19/19 10/61/56
f 14/3/3 52/18/18 28/15/15
f 53/17/17 29/16/16 7/63/58
f 2/50/50 20/39/39 53/17/17
f 4/62/57 28/15/15 53/17/17
f 54/14/14 19/13/13 3/49/49
f 29/16/16 54/14/14 17/7/7
f 10/61/56 27/12/12 54/14/14
f 55/10/10 26/11/11 9/47/47
f 10/61/56 30/19/19 55/10/10
f 31/20/20 56/9/9 25/8/8
f 11/24/24 34/27/27 56/9/9
f 7/63/58 17/7/7 56/9/9
f 35/29/29 57/6/6 22/5/5
f 38/64/36 57/6/6 35/29/29
f 6/52/48 16/4/4 57/6/6
f 58/1/1 14/3/3 4/62/57
f 42/65/45 58/1/1 39/38/38
