# Blender v2.79 (sub 0) OBJ File: ''
# www.blender.org
o Plane
v 3.858481 0.000000 -2.616786
v -3.858481 0.000000 -2.616786
v 3.858481 0.000000 3.858481
v -3.858481 0.000000 3.858481
v -2.893861 0.000000 3.858481
v -1.929241 0.000000 3.858481
v -0.964620 0.000000 3.858481
v 0.000000 0.000000 3.858481
v 0.964620 0.000000 3.858481
v 1.929241 0.000000 3.858481
v 2.893861 0.000000 3.858481
v 2.893861 0.000000 2.893861
v 1.929241 0.000000 1.929241
v 0.964620 0.032444 0.670989
v 0.000000 0.970925 0.000000
v -0.964620 0.972943 -0.019881
v -1.929241 0.000000 -0.687546
v -2.893861 0.000000 -1.652166
v -3.858481 0.000000 -1.652166
v -3.858481 0.000000 -0.687546
v -3.858481 0.972943 -0.019881
v -3.858481 0.970925 0.000000
v -3.858481 0.032444 0.670989
v -3.858481 0.000000 1.929241
v -3.858481 0.000000 2.893861
v 3.858481 0.000000 2.893861
v 3.858481 0.000000 1.929241
v 3.858481 0.032444 0.670989
v 3.858481 0.970925 0.000000
v 3.858481 0.972943 -0.019881
v 3.858481 0.000000 -0.687546
v 3.858481 0.000000 -1.652166
v 2.893861 0.000000 -2.616786
v 1.929241 0.000000 -2.616786
v 0.964620 0.000000 -2.616786
v 0.000000 0.000000 -2.616786
v -0.964620 0.000000 -2.616786
v -1.929241 0.000000 -2.616786
v -2.893861 0.000000 -2.616786
v -2.893861 0.000000 2.893861
v -1.929241 0.000000 2.893861
v -2.893861 0.000000 1.929241
v -0.964620 0.000000 2.893861
v -1.929241 0.000000 1.929241
v -2.893861 0.032444 0.670989
v 0.000000 0.000000 2.893861
v -0.964620 0.000000 1.929241
v -1.929241 0.032444 0.670989
v -2.893861 0.970925 0.000000
v 0.964620 0.000000 2.893861
v 0.000000 0.000000 1.929241
v -0.964620 0.032444 0.670989
v -1.929241 0.970925 0.000000
v -2.893861 0.972943 -0.019881
v 1.929241 0.000000 2.893861
v 0.964620 0.000000 1.929241
v 0.000000 0.032444 0.670989
v -0.964620 0.970925 0.000000
v -1.929241 0.972943 -0.019881
v -2.893861 0.000000 -0.687546
v -1.929241 0.000000 -1.652166
v -0.964620 0.000000 -0.687546
v -0.964620 0.000000 -1.652166
v 0.000000 0.972943 -0.019881
v 0.000000 0.000000 -0.687546
v 0.000000 0.000000 -1.652166
v 0.964620 0.970925 0.000000
v 0.964620 0.972943 -0.019881
v 0.964620 0.000000 -0.687546
v 0.964620 0.000000 -1.652166
v 1.929241 0.032444 0.670989
v 1.929241 0.970925 0.000000
v 1.929241 0.972943 -0.019881
v 1.929241 0.000000 -0.687546
v 1.929241 0.000000 -1.652166
v 2.893861 0.000000 1.929241
v 2.893861 0.032444 0.670989
v 2.893861 0.970925 0.000000
v 2.893861 0.972943 -0.019881
v 2.893861 0.000000 -0.687546
v 2.893861 0.000000 -1.652166
vt 0.999902 0.000108
vt 0.999901 0.125082
vt 0.874926 0.125081
vt 0.874927 0.000107
vt 0.125079 0.000100
vt 0.000103 0.125073
vt 0.000104 0.000098
vt 0.250054 0.000101
vt 0.125078 0.125075
vt 0.375029 0.000102
vt 0.250053 0.125076
vt 0.500004 0.000103
vt 0.375028 0.125077
vt 0.624979 0.000105
vt 0.500003 0.125078
vt 0.749953 0.000106
vt 0.624977 0.125079
vt 0.749952 0.125080
vt 0.000102 0.250049
vt 0.125077 0.250050
vt 0.000100 0.413121
vt 0.250052 0.250051
vt 0.125076 0.413122
vt 0.000099 0.562591
vt 0.375027 0.250052
vt 0.250051 0.413123
vt 0.125075 0.562591
vt 0.000099 0.565180
vt 0.500002 0.250053
vt 0.375026 0.413123
vt 0.250050 0.562592
vt 0.125075 0.565180
vt 0.000099 0.718060
vt 0.624977 0.250054
vt 0.500001 0.413124
vt 0.375025 0.562592
vt 0.250050 0.565181
vt 0.125074 0.718060
vt 0.000098 0.843035
vt 0.749951 0.250055
vt 0.624975 0.413125
vt 0.500000 0.562593
vt 0.375025 0.565181
vt 0.250050 0.718060
vt 0.125074 0.843035
vt 0.000098 0.968011
vt 0.125074 0.968011
vt 0.250049 0.843035
vt 0.375025 0.718060
vt 0.500000 0.565182
vt 0.624975 0.562593
vt 0.749950 0.413125
vt 0.874925 0.250056
vt 0.250049 0.968011
vt 0.375024 0.843036
vt 0.375024 0.968011
vt 0.500000 0.718061
vt 0.499999 0.843036
vt 0.499999 0.968010
vt 0.624975 0.565182
vt 0.624974 0.718061
vt 0.624974 0.843036
vt 0.624974 0.968010
vt 0.749949 0.562594
vt 0.749949 0.565183
vt 0.749949 0.718061
vt 0.749949 0.843036
vt 0.749949 0.968010
vt 0.874924 0.413126
vt 0.874924 0.562594
vt 0.874924 0.565183
vt 0.874923 0.718061
vt 0.874923 0.843036
vt 0.874923 0.968010
vt 0.999900 0.250057
vt 0.999898 0.413127
vt 0.999897 0.562595
vt 0.999897 0.565184
vt 0.999897 0.718061
vt 0.999897 0.843036
vt 0.999898 0.968010
vn 0.0000 1.0000 0.0000
vn 0.0000 0.9999 0.0129
vn 0.0000 0.8833 0.4688
vn 0.0000 0.8650 0.5017
vn 0.0000 0.9072 -0.4206
vn 0.0000 0.8848 -0.4659
s 1
f 3/1/1 26/2/1 12/3/1
f 3/1/1 12/3/1 11/4/1
f 5/5/1 25/6/1 4/7/1
f 6/8/1 40/9/1 5/5/1
f 7/10/1 41/11/1 6/8/1
f 8/12/1 43/13/1 7/10/1
f 9/14/1 46/15/1 8/12/1
f 10/16/1 50/17/1 9/14/1
f 11/4/1 55/18/1 10/16/1
f 5/5/1 40/9/1 25/6/1
f 40/9/1 24/19/2 25/6/1
f 6/8/1 41/11/1 40/9/1
f 41/11/1 42/20/2 40/9/1
f 40/9/1 42/20/2 24/19/2
f 42/20/2 23/21/3 24/19/2
f 7/10/1 43/13/1 41/11/1
f 43/13/1 44/22/2 41/11/1
f 41/11/1 44/22/2 42/20/2
f 44/22/2 45/23/3 42/20/2
f 42/20/2 45/23/3 23/21/3
f 45/23/3 22/24/4 23/21/3
f 8/12/1 46/15/1 43/13/1
f 46/15/1 47/25/2 43/13/1
f 43/13/1 47/25/2 44/22/2
f 47/25/2 48/26/3 44/22/2
f 44/22/2 48/26/3 45/23/3
f 48/26/3 49/27/4 45/23/3
f 45/23/3 49/27/4 22/24/4
f 49/27/4 21/28/5 22/24/4
f 9/14/1 50/17/1 46/15/1
f 50/17/1 51/29/2 46/15/1
f 46/15/1 51/29/2 47/25/2
f 51/29/2 52/30/3 47/25/2
f 47/25/2 52/30/3 48/26/3
f 52/30/3 53/31/4 48/26/3
f 48/26/3 53/31/4 49/27/4
f 53/31/4 54/32/5 49/27/4
f 49/27/4 54/32/5 21/28/5
f 54/32/5 20/33/6 21/28/5
f 10/16/1 55/18/1 50/17/1
f 55/18/1 56/34/2 50/17/1
f 50/17/1 56/34/2 51/29/2
f 56/34/2 57/35/3 51/29/2
f 51/29/2 57/35/3 52/30/3
f 57/35/3 58/36/4 52/30/3
f 52/30/3 58/36/4 53/31/4
f 58/36/4 59/37/5 53/31/4
f 53/31/4 59/37/5 54/32/5
f 59/37/5 60/38/6 54/32/5
f 54/32/5 60/38/6 20/33/6
f 60/38/6 19/39/1 20/33/6
f 11/4/1 12/3/1 55/18/1
f 12/3/1 13/40/2 55/18/1
f 55/18/1 13/40/2 56/34/2
f 13/40/2 14/41/3 56/34/2
f 56/34/2 14/41/3 57/35/3
f 14/41/3 15/42/4 57/35/3
f 57/35/3 15/42/4 58/36/4
f 15/42/4 16/43/5 58/36/4
f 58/36/4 16/43/5 59/37/5
f 16/43/5 17/44/6 59/37/5
f 59/37/5 17/44/6 60/38/6
f 17/44/6 18/45/1 60/38/6
f 60/38/6 18/45/1 19/39/1
f 18/45/1 2/46/1 19/39/1
f 18/45/1 39/47/1 2/46/1
f 17/44/6 61/48/1 18/45/1
f 16/43/5 62/49/6 17/44/6
f 15/42/4 64/50/5 16/43/5
f 14/41/3 67/51/4 15/42/4
f 13/40/2 71/52/3 14/41/3
f 12/3/1 76/53/2 13/40/2
f 18/45/1 61/48/1 39/47/1
f 61/48/1 38/54/1 39/47/1
f 17/44/6 62/49/6 61/48/1
f 62/49/6 63/55/1 61/48/1
f 61/48/1 63/55/1 38/54/1
f 63/55/1 37/56/1 38/54/1
f 16/43/5 64/50/5 62/49/6
f 64/50/5 65/57/6 62/49/6
f 62/49/6 65/57/6 63/55/1
f 65/57/6 66/58/1 63/55/1
f 63/55/1 66/58/1 37/56/1
f 66/58/1 36/59/1 37/56/1
f 15/42/4 67/51/4 64/50/5
f 67/51/4 68/60/5 64/50/5
f 64/50/5 68/60/5 65/57/6
f 68/60/5 69/61/6 65/57/6
f 65/57/6 69/61/6 66/58/1
f 69/61/6 70/62/1 66/58/1
f 66/58/1 70/62/1 36/59/1
f 70/62/1 35/63/1 36/59/1
f 14/41/3 71/52/3 67/51/4
f 71/52/3 72/64/4 67/51/4
f 67/51/4 72/64/4 68/60/5
f 72/64/4 73/65/5 68/60/5
f 68/60/5 73/65/5 69/61/6
f 73/65/5 74/66/6 69/61/6
f 69/61/6 74/66/6 70/62/1
f 74/66/6 75/67/1 70/62/1
f 70/62/1 75/67/1 35/63/1
f 75/67/1 34/68/1 35/63/1
f 13/40/2 76/53/2 71/52/3
f 76/53/2 77/69/3 71/52/3
f 71/52/3 77/69/3 72/64/4
f 77/69/3 78/70/4 72/64/4
f 72/64/4 78/70/4 73/65/5
f 78/70/4 79/71/5 73/65/5
f 73/65/5 79/71/5 74/66/6
f 79/71/5 80/72/6 74/66/6
f 74/66/6 80/72/6 75/67/1
f 80/72/6 81/73/1 75/67/1
f 75/67/1 81/73/1 34/68/1
f 81/73/1 33/74/1 34/68/1
f 12/3/1 26/2/1 76/53/2
f 26/2/1 27/75/2 76/53/2
f 76/53/2 27/75/2 77/69/3
f 27/75/2 28/76/3 77/69/3
f 77/69/3 28/76/3 78/70/4
f 28/76/3 29/77/4 78/70/4
f 78/70/4 29/77/4 79/71/5
f 29/77/4 30/78/5 79/71/5
f 79/71/5 30/78/5 80/72/6
f 30/78/5 31/79/6 80/72/6
f 80/72/6 31/79/6 81/73/1
f 31/79/6 32/80/1 81/73/1
f 81/73/1 32/80/1 33/74/1
f 32/80/1 1/81/1 33/74/1
