# Blender v2.79 (sub 0) OBJ File: ''
# www.blender.org
o Plane
v 3.858481 0.000000 -2.616786
v -3.858481 0.000000 -2.616786
v 3.858481 0.000000 2.541086
v -3.858481 0.000000 2.541086
v -2.893861 0.000000 2.541086
v -1.929241 0.000000 2.541086
v -0.964620 0.000000 2.541086
v 0.000000 0.000000 2.541086
v 0.964620 0.000000 2.541086
v 1.929241 0.000000 2.541086
v 2.893861 0.000000 2.541086
v 2.893861 0.000000 1.576466
v 1.929241 0.000000 0.611846
v 0.964620 0.973671 0.020231
v 0.000000 0.980072 0.000000
v -0.964620 0.972943 -0.019881
v -1.929241 0.000000 -0.687546
v -2.893861 0.000000 -1.652166
v -3.858481 0.000000 -1.652166
v -3.858481 0.000000 -0.687546
v -3.858481 0.972943 -0.019881
v -3.858481 0.980072 0.000000
v -3.858481 0.973671 0.020231
v -3.858481 0.000000 0.611846
v -3.858481 0.000000 1.576466
v 3.858481 0.000000 1.576466
v 3.858481 0.000000 0.611846
v 3.858481 0.973671 0.020231
v 3.858481 0.980072 0.000000
v 3.858481 0.972943 -0.019881
v 3.858481 0.000000 -0.687546
v 3.858481 0.000000 -1.652166
v 2.893861 0.000000 -2.616786
v 1.929241 0.000000 -2.616786
v 0.964620 0.000000 -2.616786
v 0.000000 0.000000 -2.616786
v -0.964620 0.000000 -2.616786
v -1.929241 0.000000 -2.616786
v -2.893861 0.000000 -2.616786
v -2.893861 0.000000 1.576466
v -1.929241 0.000000 1.576466
v -2.893861 0.000000 0.611846
v -0.964620 0.000000 1.576466
v -1.929241 0.000000 0.611846
v -2.893861 0.973671 0.020231
v 0.000000 0.000000 1.576466
v -0.964620 0.000000 0.611846
v -1.929241 0.973671 0.020231
v -2.893861 0.980072 0.000000
v 0.964620 0.000000 1.576466
v 0.000000 0.000000 0.611846
v -0.964620 0.973671 0.020231
v -1.929241 0.980072 0.000000
v -2.893861 0.972943 -0.019881
v 1.929241 0.000000 1.576466
v 0.964620 0.000000 0.611846
v 0.000000 0.973671 0.020231
v -0.964620 0.980072 0.000000
v -1.929241 0.972943 -0.019881
v -2.893861 0.000000 -0.687546
v -1.929241 0.000000 -1.652166
v -0.964620 0.000000 -0.687546
v -0.964620 0.000000 -1.652166
v 0.000000 0.972943 -0.019881
v 0.000000 0.000000 -0.687546
v 0.000000 0.000000 -1.652166
v 0.964620 0.980072 0.000000
v 0.964620 0.972943 -0.019881
v 0.964620 0.000000 -0.687546
v 0.964620 0.000000 -1.652166
v 1.929241 0.973671 0.020231
v 1.929241 0.980072 0.000000
v 1.929241 0.972943 -0.019881
v 1.929241 0.000000 -0.687546
v 1.929241 0.000000 -1.652166
v 2.893861 0.000000 0.611846
v 2.893861 0.973671 0.020231
v 2.893861 0.980072 0.000000
v 2.893861 0.972943 -0.019881
v 2.893861 0.000000 -0.687546
v 2.893861 0.000000 -1.652166
vt 0.999905 0.000090
vt 0.999907 0.125071
vt 0.874925 0.125073
vt 0.874923 0.000092
vt 0.125062 0.000115
vt 0.000094 0.125091
vt 0.000090 0.000119
vt 0.250035 0.000110
vt 0.125066 0.125087
vt 0.375009 0.000106
vt 0.250039 0.125084
vt 0.499985 0.000102
vt 0.375013 0.125081
vt 0.624963 0.000098
vt 0.499989 0.125079
vt 0.749943 0.000095
vt 0.624966 0.125076
vt 0.749945 0.125075
vt 0.000099 0.250062
vt 0.125069 0.250059
vt 0.000102 0.397663
vt 0.250041 0.250058
vt 0.125069 0.397663
vt 0.000102 0.400412
vt 0.375015 0.250056
vt 0.250041 0.397664
vt 0.125069 0.400412
vt 0.000102 0.403148
vt 0.499990 0.250055
vt 0.375015 0.397664
vt 0.250041 0.400413
vt 0.125069 0.403148
vt 0.000098 0.556019
vt 0.624967 0.250054
vt 0.499990 0.397665
vt 0.375015 0.400413
vt 0.250041 0.403149
vt 0.125068 0.556022
vt 0.000094 0.680990
vt 0.749946 0.250054
vt 0.624967 0.397666
vt 0.499990 0.400414
vt 0.375015 0.403149
vt 0.250039 0.556025
vt 0.125065 0.680993
vt 0.000090 0.805960
vt 0.125060 0.805965
vt 0.250036 0.680997
vt 0.375013 0.556027
vt 0.499990 0.403150
vt 0.624967 0.400415
vt 0.749945 0.397668
vt 0.874926 0.250054
vt 0.250032 0.805970
vt 0.375009 0.681001
vt 0.375004 0.805975
vt 0.499988 0.556030
vt 0.499984 0.681006
vt 0.499979 0.805981
vt 0.624967 0.403152
vt 0.624964 0.556033
vt 0.624960 0.681010
vt 0.624954 0.805987
vt 0.749945 0.400417
vt 0.749945 0.403153
vt 0.749942 0.556037
vt 0.749938 0.681015
vt 0.749932 0.805993
vt 0.874925 0.397669
vt 0.874925 0.400419
vt 0.874925 0.403155
vt 0.874922 0.556041
vt 0.874917 0.681021
vt 0.874911 0.806000
vt 0.999909 0.250053
vt 0.999910 0.397671
vt 0.999910 0.400420
vt 0.999910 0.403157
vt 0.999903 0.556046
vt 0.999897 0.681027
vt 0.999890 0.806006
vn 0.0000 1.0000 0.0000
vn 0.0000 0.8715 0.4902
vn 0.0000 0.7865 0.6175
vn 0.0000 0.9998 -0.0189
vn 0.0000 0.7919 -0.6106
vn 0.0000 0.8848 -0.4659
s 1
f 3/1/1 26/2/1 12/3/1
f 3/1/1 12/3/1 11/4/1
f 5/5/1 25/6/1 4/7/1
f 6/8/1 40/9/1 5/5/1
f 7/10/1 41/11/1 6/8/1
f 8/12/1 43/13/1 7/10/1
f 9/14/1 46/15/1 8/12/1
f 10/16/1 50/17/1 9/14/1
f 11/4/1 55/18/1 10/16/1
f 5/5/1 40/9/1 25/6/1
f 40/9/1 24/19/2 25/6/1
f 6/8/1 41/11/1 40/9/1
f 41/11/1 42/20/2 40/9/1
f 40/9/1 42/20/2 24/19/2
f 42/20/2 23/21/3 24/19/2
f 7/10/1 43/13/1 41/11/1
f 43/13/1 44/22/2 41/11/1
f 41/11/1 44/22/2 42/20/2
f 44/22/2 45/23/3 42/20/2
f 42/20/2 45/23/3 23/21/3
f 45/23/3 22/24/4 23/21/3
f 8/12/1 46/15/1 43/13/1
f 46/15/1 47/25/2 43/13/1
f 43/13/1 47/25/2 44/22/2
f 47/25/2 48/26/3 44/22/2
f 44/22/2 48/26/3 45/23/3
f 48/26/3 49/27/4 45/23/3
f 45/23/3 49/27/4 22/24/4
f 49/27/4 21/28/5 22/24/4
f 9/14/1 50/17/1 46/15/1
f 50/17/1 51/29/2 46/15/1
f 46/15/1 51/29/2 47/25/2
f 51/29/2 52/30/3 47/25/2
f 47/25/2 52/30/3 48/26/3
f 52/30/3 53/31/4 48/26/3
f 48/26/3 53/31/4 49/27/4
f 53/31/4 54/32/5 49/27/4
f 49/27/4 54/32/5 21/28/5
f 54/32/5 20/33/6 21/28/5
f 10/16/1 55/18/1 50/17/1
f 55/18/1 56/34/2 50/17/1
f 50/17/1 56/34/2 51/29/2
f 56/34/2 57/35/3 51/29/2
f 51/29/2 57/35/3 52/30/3
f 57/35/3 58/36/4 52/30/3
f 52/30/3 58/36/4 53/31/4
f 58/36/4 59/37/5 53/31/4
f 53/31/4 59/37/5 54/32/5
f 59/37/5 60/38/6 54/32/5
f 54/32/5 60/38/6 20/33/6
f 60/38/6 19/39/1 20/33/6
f 11/4/1 12/3/1 55/18/1
f 12/3/1 13/40/2 55/18/1
f 55/18/1 13/40/2 56/34/2
f 13/40/2 14/41/3 56/34/2
f 56/34/2 14/41/3 57/35/3
f 14/41/3 15/42/4 57/35/3
f 57/35/3 15/42/4 58/36/4
f 15/42/4 16/43/5 58/36/4
f 58/36/4 16/43/5 59/37/5
f 16/43/5 17/44/6 59/37/5
f 59/37/5 17/44/6 60/38/6
f 17/44/6 18/45/1 60/38/6
f 60/38/6 18/45/1 19/39/1
f 18/45/1 2/46/1 19/39/1
f 18/45/1 39/47/1 2/46/1
f 17/44/6 61/48/1 18/45/1
f 16/43/5 62/49/6 17/44/6
f 15/42/4 64/50/5 16/43/5
f 14/41/3 67/51/4 15/42/4
f 13/40/2 71/52/3 14/41/3
f 12/3/1 76/53/2 13/40/2
f 18/45/1 61/48/1 39/47/1
f 61/48/1 38/54/1 39/47/1
f 17/44/6 62/49/6 61/48/1
f 62/49/6 63/55/1 61/48/1
f 61/48/1 63/55/1 38/54/1
f 63/55/1 37/56/1 38/54/1
f 16/43/5 64/50/5 62/49/6
f 64/50/5 65/57/6 62/49/6
f 62/49/6 65/57/6 63/55/1
f 65/57/6 66/58/1 63/55/1
f 63/55/1 66/58/1 37/56/1
f 66/58/1 36/59/1 37/56/1
f 15/42/4 67/51/4 64/50/5
f 67/51/4 68/60/5 64/50/5
f 64/50/5 68/60/5 65/57/6
f 68/60/5 69/61/6 65/57/6
f 65/57/6 69/61/6 66/58/1
f 69/61/6 70/62/1 66/58/1
f 66/58/1 70/62/1 36/59/1
f 70/62/1 35/63/1 36/59/1
f 14/41/3 71/52/3 67/51/4
f 71/52/3 72/64/4 67/51/4
f 67/51/4 72/64/4 68/60/5
f 72/64/4 73/65/5 68/60/5
f 68/60/5 73/65/5 69/61/6
f 73/65/5 74/66/6 69/61/6
f 69/61/6 74/66/6 70/62/1
f 74/66/6 75/67/1 70/62/1
f 70/62/1 75/67/1 35/63/1
f 75/67/1 34/68/1 35/63/1
f 13/40/2 76/53/2 71/52/3
f 76/53/2 77/69/3 71/52/3
f 71/52/3 77/69/3 72/64/4
f 77/69/3 78/70/4 72/64/4
f 72/64/4 78/70/4 73/65/5
f 78/70/4 79/71/5 73/65/5
f 73/65/5 79/71/5 74/66/6
f 79/71/5 80/72/6 74/66/6
f 74/66/6 80/72/6 75/67/1
f 80/72/6 81/73/1 75/67/1
f 75/67/1 81/73/1 34/68/1
f 81/73/1 33/74/1 34/68/1
f 12/3/1 26/2/1 76/53/2
f 26/2/1 27/75/2 76/53/2
f 76/53/2 27/75/2 77/69/3
f 27/75/2 28/76/3 77/69/3
f 77/69/3 28/76/3 78/70/4
f 28/76/3 29/77/4 78/70/4
f 78/70/4 29/77/4 79/71/5
f 29/77/4 30/78/5 79/71/5
f 79/71/5 30/78/5 80/72/6
f 30/78/5 31/79/6 80/72/6
f 80/72/6 31/79/6 81/73/1
f 31/79/6 32/80/1 81/73/1
f 81/73/1 32/80/1 33/74/1
f 32/80/1 1/81/1 33/74/1
